<?xml version="1.0" encoding="UTF-8"?>
<svg xmlns="http://www.w3.org/2000/svg" width="409" height="213">
   <defs>
      <style type="text/css">
    @namespace "http://www.w3.org/2000/svg";
    .line                 {fill: none; stroke: #000535; stroke-width: 1;}
    .bold-line            {stroke: #E0E3FF; shape-rendering: crispEdges; stroke-width: 2;}
    .thin-line            {stroke: #00031F; shape-rendering: crispEdges}
    .filled               {fill: #000535; stroke: none;}
    text.terminal         {font-family: Verdana, Sans-serif;
                            font-size: 12px;
                            fill: #E0E3FF;
                            font-weight: bold;
                          }
    text.nonterminal      {font-family: Verdana, Sans-serif;
                            font-size: 12px;
                            fill: #00031A;
                            font-weight: normal;
                          }
    text.regexp           {font-family: Verdana, Sans-serif;
                            font-size: 12px;
                            fill: #00031F;
                            font-weight: normal;
                          }
    rect, circle, polygon {fill: #000535; stroke: #000535;}
    rect.terminal         {fill: #5768FF; stroke: #000535; stroke-width: 1;}
    rect.nonterminal      {fill: #A4ADFF; stroke: #000535; stroke-width: 1;}
    rect.text             {fill: none; stroke: none;}
    polygon.regexp        {fill: #CACFFF; stroke: #000535; stroke-width: 1;}
  </style>
   </defs>
   <polygon points="9 17 1 13 1 21"/>
   <polygon points="17 17 9 13 9 21"/>
   <a xmlns:xlink="http://www.w3.org/1999/xlink"
      xlink:href="#Number"
      xlink:title="Number">
      <rect x="51" y="3" width="70" height="32"/>
      <rect x="49" y="1" width="70" height="32" class="nonterminal"/>
      <text class="nonterminal" x="59" y="21">Number</text>
   </a>
   <a xmlns:xlink="http://www.w3.org/1999/xlink"
      xlink:href="#Identifier"
      xlink:title="Identifier">
      <rect x="51" y="47" width="78" height="32"/>
      <rect x="49" y="45" width="78" height="32" class="nonterminal"/>
      <text class="nonterminal" x="59" y="65">Identifier</text>
   </a>
   <rect x="189" y="3" width="28" height="32" rx="10"/>
   <rect x="187"
         y="1"
         width="28"
         height="32"
         class="terminal"
         rx="10"/>
   <text class="terminal" x="197" y="21">*</text>
   <rect x="189" y="47" width="30" height="32" rx="10"/>
   <rect x="187"
         y="45"
         width="30"
         height="32"
         class="terminal"
         rx="10"/>
   <text class="terminal" x="197" y="65">+</text>
   <rect x="189" y="91" width="26" height="32" rx="10"/>
   <rect x="187"
         y="89"
         width="26"
         height="32"
         class="terminal"
         rx="10"/>
   <text class="terminal" x="197" y="109">-</text>
   <rect x="189" y="135" width="28" height="32" rx="10"/>
   <rect x="187"
         y="133"
         width="28"
         height="32"
         class="terminal"
         rx="10"/>
   <text class="terminal" x="197" y="153">/</text>
   <rect x="189" y="179" width="34" height="32" rx="10"/>
   <rect x="187"
         y="177"
         width="34"
         height="32"
         class="terminal"
         rx="10"/>
   <text class="terminal" x="197" y="197">%</text>
   <a xmlns:xlink="http://www.w3.org/1999/xlink"
      xlink:href="#Number"
      xlink:title="Number">
      <rect x="283" y="3" width="70" height="32"/>
      <rect x="281" y="1" width="70" height="32" class="nonterminal"/>
      <text class="nonterminal" x="291" y="21">Number</text>
   </a>
   <a xmlns:xlink="http://www.w3.org/1999/xlink"
      xlink:href="#Identifier"
      xlink:title="Identifier">
      <rect x="283" y="47" width="78" height="32"/>
      <rect x="281" y="45" width="78" height="32" class="nonterminal"/>
      <text class="nonterminal" x="291" y="65">Identifier</text>
   </a>
   <path class="line"
         d="m17 17 h2 m20 0 h10 m70 0 h10 m0 0 h8 m-118 0 h20 m98 0 h20 m-138 0 q10 0 10 10 m118 0 q0 -10 10 -10 m-128 10 v24 m118 0 v-24 m-118 24 q0 10 10 10 m98 0 q10 0 10 -10 m-108 10 h10 m78 0 h10 m40 -44 h10 m28 0 h10 m0 0 h6 m-74 0 h20 m54 0 h20 m-94 0 q10 0 10 10 m74 0 q0 -10 10 -10 m-84 10 v24 m74 0 v-24 m-74 24 q0 10 10 10 m54 0 q10 0 10 -10 m-64 10 h10 m30 0 h10 m0 0 h4 m-64 -10 v20 m74 0 v-20 m-74 20 v24 m74 0 v-24 m-74 24 q0 10 10 10 m54 0 q10 0 10 -10 m-64 10 h10 m26 0 h10 m0 0 h8 m-64 -10 v20 m74 0 v-20 m-74 20 v24 m74 0 v-24 m-74 24 q0 10 10 10 m54 0 q10 0 10 -10 m-64 10 h10 m28 0 h10 m0 0 h6 m-64 -10 v20 m74 0 v-20 m-74 20 v24 m74 0 v-24 m-74 24 q0 10 10 10 m54 0 q10 0 10 -10 m-64 10 h10 m34 0 h10 m40 -176 h10 m70 0 h10 m0 0 h8 m-118 0 h20 m98 0 h20 m-138 0 q10 0 10 10 m118 0 q0 -10 10 -10 m-128 10 v24 m118 0 v-24 m-118 24 q0 10 10 10 m98 0 q10 0 10 -10 m-108 10 h10 m78 0 h10 m23 -44 h-3"/>
   <polygon points="399 17 407 13 407 21"/>
   <polygon points="399 17 391 13 391 21"/>
</svg>
