<?xml version="1.0" encoding="UTF-8"?>
<svg xmlns="http://www.w3.org/2000/svg" width="319" height="37">
   <defs>
      <style type="text/css">
    @namespace "http://www.w3.org/2000/svg";
    .line                 {fill: none; stroke: #000535; stroke-width: 1;}
    .bold-line            {stroke: #E0E3FF; shape-rendering: crispEdges; stroke-width: 2;}
    .thin-line            {stroke: #00031F; shape-rendering: crispEdges}
    .filled               {fill: #000535; stroke: none;}
    text.terminal         {font-family: Verdana, Sans-serif;
                            font-size: 12px;
                            fill: #E0E3FF;
                            font-weight: bold;
                          }
    text.nonterminal      {font-family: Verdana, Sans-serif;
                            font-size: 12px;
                            fill: #00031A;
                            font-weight: normal;
                          }
    text.regexp           {font-family: Verdana, Sans-serif;
                            font-size: 12px;
                            fill: #00031F;
                            font-weight: normal;
                          }
    rect, circle, polygon {fill: #000535; stroke: #000535;}
    rect.terminal         {fill: #5768FF; stroke: #000535; stroke-width: 1;}
    rect.nonterminal      {fill: #A4ADFF; stroke: #000535; stroke-width: 1;}
    rect.text             {fill: none; stroke: none;}
    polygon.regexp        {fill: #CACFFF; stroke: #000535; stroke-width: 1;}
  </style>
   </defs>
   <polygon points="9 17 1 13 1 21"/>
   <polygon points="17 17 9 13 9 21"/>
   <a xmlns:xlink="http://www.w3.org/1999/xlink"
      xlink:href="#Identifier"
      xlink:title="Identifier">
      <rect x="31" y="3" width="78" height="32"/>
      <rect x="29" y="1" width="78" height="32" class="nonterminal"/>
      <text class="nonterminal" x="39" y="21">Identifier</text>
   </a>
   <rect x="129" y="3" width="30" height="32" rx="10"/>
   <rect x="127"
         y="1"
         width="30"
         height="32"
         class="terminal"
         rx="10"/>
   <text class="terminal" x="137" y="21">=</text>
   <a xmlns:xlink="http://www.w3.org/1999/xlink"
      xlink:href="#ExpressionList"
      xlink:title="ExpressionList">
      <rect x="179" y="3" width="112" height="32"/>
      <rect x="177" y="1" width="112" height="32" class="nonterminal"/>
      <text class="nonterminal" x="187" y="21">ExpressionList</text>
   </a>
   <path class="line"
         d="m17 17 h2 m0 0 h10 m78 0 h10 m0 0 h10 m30 0 h10 m0 0 h10 m112 0 h10 m3 0 h-3"/>
   <polygon points="309 17 317 13 317 21"/>
   <polygon points="309 17 301 13 301 21"/>
</svg>
