<?xml version="1.0" encoding="UTF-8"?>
<svg xmlns="http://www.w3.org/2000/svg" width="531" height="153">
   <defs>
      <style type="text/css">
    @namespace "http://www.w3.org/2000/svg";
    .line                 {fill: none; stroke: #003322; stroke-width: 1;}
    .bold-line            {stroke: #00140E; shape-rendering: crispEdges; stroke-width: 2;}
    .thin-line            {stroke: #001F14; shape-rendering: crispEdges}
    .filled               {fill: #003322; stroke: none;}
    text.terminal         {font-family: Verdana, Sans-serif;
                            font-size: 12px;
                            fill: #00140E;
                            font-weight: bold;
                          }
    text.nonterminal      {font-family: Verdana, Sans-serif;
                            font-size: 12px;
                            fill: #001A11;
                            font-weight: normal;
                          }
    text.regexp           {font-family: Verdana, Sans-serif;
                            font-size: 12px;
                            fill: #001F14;
                            font-weight: normal;
                          }
    rect, circle, polygon {fill: #003322; stroke: #003322;}
    rect.terminal         {fill: #4DFFC3; stroke: #003322; stroke-width: 1;}
    rect.nonterminal      {fill: #9EFFDF; stroke: #003322; stroke-width: 1;}
    rect.text             {fill: none; stroke: none;}
    polygon.regexp        {fill: #C7FFEC; stroke: #003322; stroke-width: 1;}
  </style>
   </defs>
   <polygon points="9 51 1 47 1 55"/>
   <polygon points="17 51 9 47 9 55"/>
   <rect x="31" y="37" width="36" height="32" rx="10"/>
   <rect x="29"
         y="35"
         width="36"
         height="32"
         class="terminal"
         rx="10"/>
   <text class="terminal" x="39" y="55">/*</text>
   <polygon points="147 53 154 37 198 37 205 53 198 69 154 69"/>
   <polygon points="145 51 152 35 196 35 203 51 196 67 152 67" class="regexp"/>
   <text class="regexp" x="160" y="55">[^*]</text>
   <rect x="167" y="103" width="28" height="32" rx="10"/>
   <rect x="165"
         y="101"
         width="28"
         height="32"
         class="terminal"
         rx="10"/>
   <text class="terminal" x="175" y="121">*</text>
   <polygon points="235 119 242 103 292 103 299 119 292 135 242 135"/>
   <polygon points="233 117 240 101 290 101 297 117 290 133 240 133" class="regexp"/>
   <text class="regexp" x="248" y="121">[^*/]</text>
   <rect x="399" y="3" width="28" height="32" rx="10"/>
   <rect x="397"
         y="1"
         width="28"
         height="32"
         class="terminal"
         rx="10"/>
   <text class="terminal" x="407" y="21">*</text>
   <rect x="467" y="37" width="36" height="32" rx="10"/>
   <rect x="465"
         y="35"
         width="36"
         height="32"
         class="terminal"
         rx="10"/>
   <text class="terminal" x="475" y="55">*/</text>
   <path class="line"
         d="m17 51 h2 m0 0 h10 m36 0 h10 m60 0 h10 m58 0 h10 m0 0 h94 m-192 0 h20 m172 0 h20 m-212 0 q10 0 10 10 m192 0 q0 -10 10 -10 m-202 10 v46 m192 0 v-46 m-192 46 q0 10 10 10 m172 0 q10 0 10 -10 m-162 10 h10 m28 0 h10 m-68 0 l20 0 m-1 0 q-9 0 -9 -10 l0 -12 q0 -10 10 -10 m48 32 l20 0 m-20 0 q10 0 10 -10 l0 -12 q0 -10 -10 -10 m-48 0 h10 m0 0 h38 m20 32 h10 m64 0 h10 m-212 -66 l20 0 m-1 0 q-9 0 -9 -10 l0 -12 q0 -10 10 -10 m212 32 l20 0 m-20 0 q10 0 10 -10 l0 -12 q0 -10 -10 -10 m-212 0 h10 m0 0 h202 m-252 32 h20 m252 0 h20 m-292 0 q10 0 10 10 m272 0 q0 -10 10 -10 m-282 10 v80 m272 0 v-80 m-272 80 q0 10 10 10 m252 0 q10 0 10 -10 m-262 10 h10 m0 0 h242 m40 -100 h10 m0 0 h38 m-68 0 l20 0 m-1 0 q-9 0 -9 -10 l0 -14 q0 -10 10 -10 m48 34 l20 0 m-20 0 q10 0 10 -10 l0 -14 q0 -10 -10 -10 m-48 0 h10 m28 0 h10 m20 34 h10 m36 0 h10 m3 0 h-3"/>
   <polygon points="521 51 529 47 529 55"/>
   <polygon points="521 51 513 47 513 55"/>
</svg>
