<?xml version="1.0" encoding="UTF-8"?>
<svg xmlns="http://www.w3.org/2000/svg" width="415" height="257">
   <defs>
      <style type="text/css">
    @namespace "http://www.w3.org/2000/svg";
    .line                 {fill: none; stroke: #003322; stroke-width: 1;}
    .bold-line            {stroke: #00140E; shape-rendering: crispEdges; stroke-width: 2;}
    .thin-line            {stroke: #001F14; shape-rendering: crispEdges}
    .filled               {fill: #003322; stroke: none;}
    text.terminal         {font-family: Verdana, Sans-serif;
                            font-size: 12px;
                            fill: #00140E;
                            font-weight: bold;
                          }
    text.nonterminal      {font-family: Verdana, Sans-serif;
                            font-size: 12px;
                            fill: #001A11;
                            font-weight: normal;
                          }
    text.regexp           {font-family: Verdana, Sans-serif;
                            font-size: 12px;
                            fill: #001F14;
                            font-weight: normal;
                          }
    rect, circle, polygon {fill: #003322; stroke: #003322;}
    rect.terminal         {fill: #4DFFC3; stroke: #003322; stroke-width: 1;}
    rect.nonterminal      {fill: #9EFFDF; stroke: #003322; stroke-width: 1;}
    rect.text             {fill: none; stroke: none;}
    polygon.regexp        {fill: #C7FFEC; stroke: #003322; stroke-width: 1;}
  </style>
   </defs>
   <polygon points="9 17 1 13 1 21"/>
   <polygon points="17 17 9 13 9 21"/>
   <a xmlns:xlink="http://www.w3.org/1999/xlink"
      xlink:href="#String"
      xlink:title="String">
      <rect x="51" y="3" width="58" height="32"/>
      <rect x="49" y="1" width="58" height="32" class="nonterminal"/>
      <text class="nonterminal" x="59" y="21">String</text>
   </a>
   <a xmlns:xlink="http://www.w3.org/1999/xlink"
      xlink:href="#Number"
      xlink:title="Number">
      <rect x="51" y="47" width="70" height="32"/>
      <rect x="49" y="45" width="70" height="32" class="nonterminal"/>
      <text class="nonterminal" x="59" y="65">Number</text>
   </a>
   <a xmlns:xlink="http://www.w3.org/1999/xlink"
      xlink:href="#Boolean"
      xlink:title="Boolean">
      <rect x="51" y="91" width="72" height="32"/>
      <rect x="49" y="89" width="72" height="32" class="nonterminal"/>
      <text class="nonterminal" x="59" y="109">Boolean</text>
   </a>
   <a xmlns:xlink="http://www.w3.org/1999/xlink"
      xlink:href="#Identifier"
      xlink:title="Identifier">
      <rect x="51" y="135" width="78" height="32"/>
      <rect x="49" y="133" width="78" height="32" class="nonterminal"/>
      <text class="nonterminal" x="59" y="153">Identifier</text>
   </a>
   <rect x="189" y="3" width="40" height="32" rx="10"/>
   <rect x="187"
         y="1"
         width="40"
         height="32"
         class="terminal"
         rx="10"/>
   <text class="terminal" x="197" y="21">==</text>
   <rect x="189" y="47" width="30" height="32" rx="10"/>
   <rect x="187"
         y="45"
         width="30"
         height="32"
         class="terminal"
         rx="10"/>
   <text class="terminal" x="197" y="65">&gt;</text>
   <rect x="189" y="91" width="40" height="32" rx="10"/>
   <rect x="187"
         y="89"
         width="40"
         height="32"
         class="terminal"
         rx="10"/>
   <text class="terminal" x="197" y="109">&gt;=</text>
   <rect x="189" y="135" width="30" height="32" rx="10"/>
   <rect x="187"
         y="133"
         width="30"
         height="32"
         class="terminal"
         rx="10"/>
   <text class="terminal" x="197" y="153">&lt;</text>
   <rect x="189" y="179" width="40" height="32" rx="10"/>
   <rect x="187"
         y="177"
         width="40"
         height="32"
         class="terminal"
         rx="10"/>
   <text class="terminal" x="197" y="197">&lt;=</text>
   <rect x="189" y="223" width="34" height="32" rx="10"/>
   <rect x="187"
         y="221"
         width="34"
         height="32"
         class="terminal"
         rx="10"/>
   <text class="terminal" x="197" y="241">!=</text>
   <a xmlns:xlink="http://www.w3.org/1999/xlink"
      xlink:href="#String"
      xlink:title="String">
      <rect x="289" y="3" width="58" height="32"/>
      <rect x="287" y="1" width="58" height="32" class="nonterminal"/>
      <text class="nonterminal" x="297" y="21">String</text>
   </a>
   <a xmlns:xlink="http://www.w3.org/1999/xlink"
      xlink:href="#Number"
      xlink:title="Number">
      <rect x="289" y="47" width="70" height="32"/>
      <rect x="287" y="45" width="70" height="32" class="nonterminal"/>
      <text class="nonterminal" x="297" y="65">Number</text>
   </a>
   <a xmlns:xlink="http://www.w3.org/1999/xlink"
      xlink:href="#Boolean"
      xlink:title="Boolean">
      <rect x="289" y="91" width="72" height="32"/>
      <rect x="287" y="89" width="72" height="32" class="nonterminal"/>
      <text class="nonterminal" x="297" y="109">Boolean</text>
   </a>
   <a xmlns:xlink="http://www.w3.org/1999/xlink"
      xlink:href="#Identifier"
      xlink:title="Identifier">
      <rect x="289" y="135" width="78" height="32"/>
      <rect x="287" y="133" width="78" height="32" class="nonterminal"/>
      <text class="nonterminal" x="297" y="153">Identifier</text>
   </a>
   <path class="line"
         d="m17 17 h2 m20 0 h10 m58 0 h10 m0 0 h20 m-118 0 h20 m98 0 h20 m-138 0 q10 0 10 10 m118 0 q0 -10 10 -10 m-128 10 v24 m118 0 v-24 m-118 24 q0 10 10 10 m98 0 q10 0 10 -10 m-108 10 h10 m70 0 h10 m0 0 h8 m-108 -10 v20 m118 0 v-20 m-118 20 v24 m118 0 v-24 m-118 24 q0 10 10 10 m98 0 q10 0 10 -10 m-108 10 h10 m72 0 h10 m0 0 h6 m-108 -10 v20 m118 0 v-20 m-118 20 v24 m118 0 v-24 m-118 24 q0 10 10 10 m98 0 q10 0 10 -10 m-108 10 h10 m78 0 h10 m40 -132 h10 m40 0 h10 m-80 0 h20 m60 0 h20 m-100 0 q10 0 10 10 m80 0 q0 -10 10 -10 m-90 10 v24 m80 0 v-24 m-80 24 q0 10 10 10 m60 0 q10 0 10 -10 m-70 10 h10 m30 0 h10 m0 0 h10 m-70 -10 v20 m80 0 v-20 m-80 20 v24 m80 0 v-24 m-80 24 q0 10 10 10 m60 0 q10 0 10 -10 m-70 10 h10 m40 0 h10 m-70 -10 v20 m80 0 v-20 m-80 20 v24 m80 0 v-24 m-80 24 q0 10 10 10 m60 0 q10 0 10 -10 m-70 10 h10 m30 0 h10 m0 0 h10 m-70 -10 v20 m80 0 v-20 m-80 20 v24 m80 0 v-24 m-80 24 q0 10 10 10 m60 0 q10 0 10 -10 m-70 10 h10 m40 0 h10 m-70 -10 v20 m80 0 v-20 m-80 20 v24 m80 0 v-24 m-80 24 q0 10 10 10 m60 0 q10 0 10 -10 m-70 10 h10 m34 0 h10 m0 0 h6 m40 -220 h10 m58 0 h10 m0 0 h20 m-118 0 h20 m98 0 h20 m-138 0 q10 0 10 10 m118 0 q0 -10 10 -10 m-128 10 v24 m118 0 v-24 m-118 24 q0 10 10 10 m98 0 q10 0 10 -10 m-108 10 h10 m70 0 h10 m0 0 h8 m-108 -10 v20 m118 0 v-20 m-118 20 v24 m118 0 v-24 m-118 24 q0 10 10 10 m98 0 q10 0 10 -10 m-108 10 h10 m72 0 h10 m0 0 h6 m-108 -10 v20 m118 0 v-20 m-118 20 v24 m118 0 v-24 m-118 24 q0 10 10 10 m98 0 q10 0 10 -10 m-108 10 h10 m78 0 h10 m23 -132 h-3"/>
   <polygon points="405 17 413 13 413 21"/>
   <polygon points="405 17 397 13 397 21"/>
</svg>
