<?xml version="1.0" encoding="UTF-8"?>
<svg xmlns="http://www.w3.org/2000/svg" width="319" height="81">
   <defs>
      <style type="text/css">
    @namespace "http://www.w3.org/2000/svg";
    .line                 {fill: none; stroke: #000535; stroke-width: 1;}
    .bold-line            {stroke: #E0E3FF; shape-rendering: crispEdges; stroke-width: 2;}
    .thin-line            {stroke: #00031F; shape-rendering: crispEdges}
    .filled               {fill: #000535; stroke: none;}
    text.terminal         {font-family: Verdana, Sans-serif;
                            font-size: 12px;
                            fill: #E0E3FF;
                            font-weight: bold;
                          }
    text.nonterminal      {font-family: Verdana, Sans-serif;
                            font-size: 12px;
                            fill: #00031A;
                            font-weight: normal;
                          }
    text.regexp           {font-family: Verdana, Sans-serif;
                            font-size: 12px;
                            fill: #00031F;
                            font-weight: normal;
                          }
    rect, circle, polygon {fill: #000535; stroke: #000535;}
    rect.terminal         {fill: #5768FF; stroke: #000535; stroke-width: 1;}
    rect.nonterminal      {fill: #A4ADFF; stroke: #000535; stroke-width: 1;}
    rect.text             {fill: none; stroke: none;}
    polygon.regexp        {fill: #CACFFF; stroke: #000535; stroke-width: 1;}
  </style>
   </defs>
   <polygon points="9 61 1 57 1 65"/>
   <polygon points="17 61 9 57 9 65"/>
   <rect x="31" y="47" width="56" height="32" rx="10"/>
   <rect x="29"
         y="45"
         width="56"
         height="32"
         class="terminal"
         rx="10"/>
   <text class="terminal" x="39" y="65">const</text>
   <a xmlns:xlink="http://www.w3.org/1999/xlink"
      xlink:href="#VariableDeclaration"
      xlink:title="VariableDeclaration">
      <rect x="127" y="47" width="144" height="32"/>
      <rect x="125" y="45" width="144" height="32" class="nonterminal"/>
      <text class="nonterminal" x="135" y="65">VariableDeclaration</text>
   </a>
   <rect x="127" y="3" width="24" height="32" rx="10"/>
   <rect x="125"
         y="1"
         width="24"
         height="32"
         class="terminal"
         rx="10"/>
   <text class="terminal" x="135" y="21">,</text>
   <path class="line"
         d="m17 61 h2 m0 0 h10 m56 0 h10 m20 0 h10 m144 0 h10 m-184 0 l20 0 m-1 0 q-9 0 -9 -10 l0 -24 q0 -10 10 -10 m164 44 l20 0 m-20 0 q10 0 10 -10 l0 -24 q0 -10 -10 -10 m-164 0 h10 m24 0 h10 m0 0 h120 m23 44 h-3"/>
   <polygon points="309 61 317 57 317 65"/>
   <polygon points="309 61 301 57 301 65"/>
</svg>
