<?xml version="1.0" encoding="UTF-8"?>
<svg xmlns="http://www.w3.org/2000/svg" width="421" height="37">
   <defs>
      <style type="text/css">
    @namespace "http://www.w3.org/2000/svg";
    .line                 {fill: none; stroke: #000535; stroke-width: 1;}
    .bold-line            {stroke: #E0E3FF; shape-rendering: crispEdges; stroke-width: 2;}
    .thin-line            {stroke: #00031F; shape-rendering: crispEdges}
    .filled               {fill: #000535; stroke: none;}
    text.terminal         {font-family: Verdana, Sans-serif;
                            font-size: 12px;
                            fill: #E0E3FF;
                            font-weight: bold;
                          }
    text.nonterminal      {font-family: Verdana, Sans-serif;
                            font-size: 12px;
                            fill: #00031A;
                            font-weight: normal;
                          }
    text.regexp           {font-family: Verdana, Sans-serif;
                            font-size: 12px;
                            fill: #00031F;
                            font-weight: normal;
                          }
    rect, circle, polygon {fill: #000535; stroke: #000535;}
    rect.terminal         {fill: #5768FF; stroke: #000535; stroke-width: 1;}
    rect.nonterminal      {fill: #A4ADFF; stroke: #000535; stroke-width: 1;}
    rect.text             {fill: none; stroke: none;}
    polygon.regexp        {fill: #CACFFF; stroke: #000535; stroke-width: 1;}
  </style>
   </defs>
   <polygon points="9 17 1 13 1 21"/>
   <polygon points="17 17 9 13 9 21"/>
   <rect x="31" y="3" width="36" height="32" rx="10"/>
   <rect x="29"
         y="1"
         width="36"
         height="32"
         class="terminal"
         rx="10"/>
   <text class="terminal" x="39" y="21">do</text>
   <a xmlns:xlink="http://www.w3.org/1999/xlink"
      xlink:href="#BlockStatement"
      xlink:title="BlockStatement">
      <rect x="87" y="3" width="120" height="32"/>
      <rect x="85" y="1" width="120" height="32" class="nonterminal"/>
      <text class="nonterminal" x="95" y="21">BlockStatement</text>
   </a>
   <rect x="227" y="3" width="56" height="32" rx="10"/>
   <rect x="225"
         y="1"
         width="56"
         height="32"
         class="terminal"
         rx="10"/>
   <text class="terminal" x="235" y="21">while</text>
   <a xmlns:xlink="http://www.w3.org/1999/xlink"
      xlink:href="#Expression"
      xlink:title="Expression">
      <rect x="303" y="3" width="90" height="32"/>
      <rect x="301" y="1" width="90" height="32" class="nonterminal"/>
      <text class="nonterminal" x="311" y="21">Expression</text>
   </a>
   <path class="line"
         d="m17 17 h2 m0 0 h10 m36 0 h10 m0 0 h10 m120 0 h10 m0 0 h10 m56 0 h10 m0 0 h10 m90 0 h10 m3 0 h-3"/>
   <polygon points="411 17 419 13 419 21"/>
   <polygon points="411 17 403 13 403 21"/>
</svg>
