<?xml version="1.0" encoding="UTF-8"?>
<svg xmlns="http://www.w3.org/2000/svg" width="321" height="301">
   <defs>
      <style type="text/css">
    @namespace "http://www.w3.org/2000/svg";
    .line                 {fill: none; stroke: #003322; stroke-width: 1;}
    .bold-line            {stroke: #00140E; shape-rendering: crispEdges; stroke-width: 2;}
    .thin-line            {stroke: #001F14; shape-rendering: crispEdges}
    .filled               {fill: #003322; stroke: none;}
    text.terminal         {font-family: Verdana, Sans-serif;
                            font-size: 12px;
                            fill: #00140E;
                            font-weight: bold;
                          }
    text.nonterminal      {font-family: Verdana, Sans-serif;
                            font-size: 12px;
                            fill: #001A11;
                            font-weight: normal;
                          }
    text.regexp           {font-family: Verdana, Sans-serif;
                            font-size: 12px;
                            fill: #001F14;
                            font-weight: normal;
                          }
    rect, circle, polygon {fill: #003322; stroke: #003322;}
    rect.terminal         {fill: #4DFFC3; stroke: #003322; stroke-width: 1;}
    rect.nonterminal      {fill: #9EFFDF; stroke: #003322; stroke-width: 1;}
    rect.text             {fill: none; stroke: none;}
    polygon.regexp        {fill: #C7FFEC; stroke: #003322; stroke-width: 1;}
  </style>
   </defs>
   <polygon points="9 17 1 13 1 21"/>
   <polygon points="17 17 9 13 9 21"/>
   <a xmlns:xlink="http://www.w3.org/1999/xlink"
      xlink:href="#Identifier"
      xlink:title="Identifier">
      <rect x="51" y="3" width="78" height="32"/>
      <rect x="49" y="1" width="78" height="32" class="nonterminal"/>
      <text class="nonterminal" x="59" y="21">Identifier</text>
   </a>
   <a xmlns:xlink="http://www.w3.org/1999/xlink"
      xlink:href="#Number"
      xlink:title="Number">
      <rect x="51" y="47" width="70" height="32"/>
      <rect x="49" y="45" width="70" height="32" class="nonterminal"/>
      <text class="nonterminal" x="59" y="65">Number</text>
   </a>
   <a xmlns:xlink="http://www.w3.org/1999/xlink"
      xlink:href="#String"
      xlink:title="String">
      <rect x="51" y="91" width="58" height="32"/>
      <rect x="49" y="89" width="58" height="32" class="nonterminal"/>
      <text class="nonterminal" x="59" y="109">String</text>
   </a>
   <a xmlns:xlink="http://www.w3.org/1999/xlink"
      xlink:href="#Boolean"
      xlink:title="Boolean">
      <rect x="51" y="135" width="72" height="32"/>
      <rect x="49" y="133" width="72" height="32" class="nonterminal"/>
      <text class="nonterminal" x="59" y="153">Boolean</text>
   </a>
   <a xmlns:xlink="http://www.w3.org/1999/xlink"
      xlink:href="#ArithmeticOperatorExpression"
      xlink:title="ArithmeticOperatorExpression">
      <rect x="51" y="179" width="210" height="32"/>
      <rect x="49" y="177" width="210" height="32" class="nonterminal"/>
      <text class="nonterminal" x="59" y="197">ArithmeticOperatorExpression</text>
   </a>
   <a xmlns:xlink="http://www.w3.org/1999/xlink"
      xlink:href="#ComparisonOperatorExpression"
      xlink:title="ComparisonOperatorExpression">
      <rect x="51" y="223" width="222" height="32"/>
      <rect x="49" y="221" width="222" height="32" class="nonterminal"/>
      <text class="nonterminal" x="59" y="241">ComparisonOperatorExpression</text>
   </a>
   <a xmlns:xlink="http://www.w3.org/1999/xlink"
      xlink:href="#StringOperatorExpression"
      xlink:title="StringOperatorExpression">
      <rect x="51" y="267" width="184" height="32"/>
      <rect x="49" y="265" width="184" height="32" class="nonterminal"/>
      <text class="nonterminal" x="59" y="285">StringOperatorExpression</text>
   </a>
   <path class="line"
         d="m17 17 h2 m20 0 h10 m78 0 h10 m0 0 h144 m-262 0 h20 m242 0 h20 m-282 0 q10 0 10 10 m262 0 q0 -10 10 -10 m-272 10 v24 m262 0 v-24 m-262 24 q0 10 10 10 m242 0 q10 0 10 -10 m-252 10 h10 m70 0 h10 m0 0 h152 m-252 -10 v20 m262 0 v-20 m-262 20 v24 m262 0 v-24 m-262 24 q0 10 10 10 m242 0 q10 0 10 -10 m-252 10 h10 m58 0 h10 m0 0 h164 m-252 -10 v20 m262 0 v-20 m-262 20 v24 m262 0 v-24 m-262 24 q0 10 10 10 m242 0 q10 0 10 -10 m-252 10 h10 m72 0 h10 m0 0 h150 m-252 -10 v20 m262 0 v-20 m-262 20 v24 m262 0 v-24 m-262 24 q0 10 10 10 m242 0 q10 0 10 -10 m-252 10 h10 m210 0 h10 m0 0 h12 m-252 -10 v20 m262 0 v-20 m-262 20 v24 m262 0 v-24 m-262 24 q0 10 10 10 m242 0 q10 0 10 -10 m-252 10 h10 m222 0 h10 m-252 -10 v20 m262 0 v-20 m-262 20 v24 m262 0 v-24 m-262 24 q0 10 10 10 m242 0 q10 0 10 -10 m-252 10 h10 m184 0 h10 m0 0 h38 m23 -264 h-3"/>
   <polygon points="311 17 319 13 319 21"/>
   <polygon points="311 17 303 13 303 21"/>
</svg>
