<?xml version="1.0" encoding="UTF-8"?>
<svg xmlns="http://www.w3.org/2000/svg" width="875" height="151">
   <defs>
      <style type="text/css">
    @namespace "http://www.w3.org/2000/svg";
    .line                 {fill: none; stroke: #000535; stroke-width: 1;}
    .bold-line            {stroke: #E0E3FF; shape-rendering: crispEdges; stroke-width: 2;}
    .thin-line            {stroke: #00031F; shape-rendering: crispEdges}
    .filled               {fill: #000535; stroke: none;}
    text.terminal         {font-family: Verdana, Sans-serif;
                            font-size: 12px;
                            fill: #E0E3FF;
                            font-weight: bold;
                          }
    text.nonterminal      {font-family: Verdana, Sans-serif;
                            font-size: 12px;
                            fill: #00031A;
                            font-weight: normal;
                          }
    text.regexp           {font-family: Verdana, Sans-serif;
                            font-size: 12px;
                            fill: #00031F;
                            font-weight: normal;
                          }
    rect, circle, polygon {fill: #000535; stroke: #000535;}
    rect.terminal         {fill: #5768FF; stroke: #000535; stroke-width: 1;}
    rect.nonterminal      {fill: #A4ADFF; stroke: #000535; stroke-width: 1;}
    rect.text             {fill: none; stroke: none;}
    polygon.regexp        {fill: #CACFFF; stroke: #000535; stroke-width: 1;}
  </style>
   </defs>
   <polygon points="9 33 1 29 1 37"/>
   <polygon points="17 33 9 29 9 37"/>
   <rect x="31" y="19" width="28" height="32" rx="10"/>
   <rect x="29"
         y="17"
         width="28"
         height="32"
         class="terminal"
         rx="10"/>
   <text class="terminal" x="39" y="37">if</text>
   <a xmlns:xlink="http://www.w3.org/1999/xlink"
      xlink:href="#Expression"
      xlink:title="Expression">
      <rect x="79" y="19" width="90" height="32"/>
      <rect x="77" y="17" width="90" height="32" class="nonterminal"/>
      <text class="nonterminal" x="87" y="37">Expression</text>
   </a>
   <rect x="189" y="19" width="50" height="32" rx="10"/>
   <rect x="187"
         y="17"
         width="50"
         height="32"
         class="terminal"
         rx="10"/>
   <text class="terminal" x="197" y="37">then</text>
   <a xmlns:xlink="http://www.w3.org/1999/xlink"
      xlink:href="#BlockStatement"
      xlink:title="BlockStatement">
      <rect x="259" y="19" width="120" height="32"/>
      <rect x="257" y="17" width="120" height="32" class="nonterminal"/>
      <text class="nonterminal" x="267" y="37">BlockStatement</text>
   </a>
   <rect x="419" y="19" width="46" height="32" rx="10"/>
   <rect x="417"
         y="17"
         width="46"
         height="32"
         class="terminal"
         rx="10"/>
   <text class="terminal" x="427" y="37">else</text>
   <rect x="485" y="19" width="28" height="32" rx="10"/>
   <rect x="483"
         y="17"
         width="28"
         height="32"
         class="terminal"
         rx="10"/>
   <text class="terminal" x="493" y="37">if</text>
   <a xmlns:xlink="http://www.w3.org/1999/xlink"
      xlink:href="#Expression"
      xlink:title="Expression">
      <rect x="533" y="19" width="90" height="32"/>
      <rect x="531" y="17" width="90" height="32" class="nonterminal"/>
      <text class="nonterminal" x="541" y="37">Expression</text>
   </a>
   <rect x="643" y="19" width="50" height="32" rx="10"/>
   <rect x="641"
         y="17"
         width="50"
         height="32"
         class="terminal"
         rx="10"/>
   <text class="terminal" x="651" y="37">then</text>
   <a xmlns:xlink="http://www.w3.org/1999/xlink"
      xlink:href="#BlockStatement"
      xlink:title="BlockStatement">
      <rect x="713" y="19" width="120" height="32"/>
      <rect x="711" y="17" width="120" height="32" class="nonterminal"/>
      <text class="nonterminal" x="721" y="37">BlockStatement</text>
   </a>
   <rect x="577" y="117" width="46" height="32" rx="10"/>
   <rect x="575"
         y="115"
         width="46"
         height="32"
         class="terminal"
         rx="10"/>
   <text class="terminal" x="585" y="135">else</text>
   <a xmlns:xlink="http://www.w3.org/1999/xlink"
      xlink:href="#BlockStatement"
      xlink:title="BlockStatement">
      <rect x="643" y="117" width="120" height="32"/>
      <rect x="641" y="115" width="120" height="32" class="nonterminal"/>
      <text class="nonterminal" x="651" y="135">BlockStatement</text>
   </a>
   <rect x="803" y="85" width="44" height="32" rx="10"/>
   <rect x="801"
         y="83"
         width="44"
         height="32"
         class="terminal"
         rx="10"/>
   <text class="terminal" x="811" y="103">end</text>
   <path class="line"
         d="m17 33 h2 m0 0 h10 m28 0 h10 m0 0 h10 m90 0 h10 m0 0 h10 m50 0 h10 m0 0 h10 m120 0 h10 m20 0 h10 m46 0 h10 m0 0 h10 m28 0 h10 m0 0 h10 m90 0 h10 m0 0 h10 m50 0 h10 m0 0 h10 m120 0 h10 m-454 0 l20 0 m-1 0 q-9 0 -9 -10 l0 -12 q0 -10 10 -10 m434 32 l20 0 m-20 0 q10 0 10 -10 l0 -12 q0 -10 -10 -10 m-434 0 h10 m0 0 h424 m22 32 l2 0 m2 0 l2 0 m2 0 l2 0 m-340 66 l2 0 m2 0 l2 0 m2 0 l2 0 m22 0 h10 m0 0 h196 m-226 0 h20 m206 0 h20 m-246 0 q10 0 10 10 m226 0 q0 -10 10 -10 m-236 10 v12 m226 0 v-12 m-226 12 q0 10 10 10 m206 0 q10 0 10 -10 m-216 10 h10 m46 0 h10 m0 0 h10 m120 0 h10 m20 -32 h10 m44 0 h10 m3 0 h-3"/>
   <polygon points="865 99 873 95 873 103"/>
   <polygon points="865 99 857 95 857 103"/>
</svg>
