<?xml version="1.0" encoding="UTF-8"?>
<svg xmlns="http://www.w3.org/2000/svg" width="189" height="169">
   <defs>
      <style type="text/css">
    @namespace "http://www.w3.org/2000/svg";
    .line                 {fill: none; stroke: #000535; stroke-width: 1;}
    .bold-line            {stroke: #E0E3FF; shape-rendering: crispEdges; stroke-width: 2;}
    .thin-line            {stroke: #00031F; shape-rendering: crispEdges}
    .filled               {fill: #000535; stroke: none;}
    text.terminal         {font-family: Verdana, Sans-serif;
                            font-size: 12px;
                            fill: #E0E3FF;
                            font-weight: bold;
                          }
    text.nonterminal      {font-family: Verdana, Sans-serif;
                            font-size: 12px;
                            fill: #00031A;
                            font-weight: normal;
                          }
    text.regexp           {font-family: Verdana, Sans-serif;
                            font-size: 12px;
                            fill: #00031F;
                            font-weight: normal;
                          }
    rect, circle, polygon {fill: #000535; stroke: #000535;}
    rect.terminal         {fill: #5768FF; stroke: #000535; stroke-width: 1;}
    rect.nonterminal      {fill: #A4ADFF; stroke: #000535; stroke-width: 1;}
    rect.text             {fill: none; stroke: none;}
    polygon.regexp        {fill: #CACFFF; stroke: #000535; stroke-width: 1;}
  </style>
   </defs>
   <polygon points="9 149 1 145 1 153"/>
   <polygon points="17 149 9 145 9 153"/>
   <a xmlns:xlink="http://www.w3.org/1999/xlink"
      xlink:href="#Expression"
      xlink:title="Expression">
      <rect x="51" y="135" width="90" height="32"/>
      <rect x="49" y="133" width="90" height="32" class="nonterminal"/>
      <text class="nonterminal" x="59" y="153">Expression</text>
   </a>
   <rect x="51" y="91" width="28" height="32" rx="10"/>
   <rect x="49"
         y="89"
         width="28"
         height="32"
         class="terminal"
         rx="10"/>
   <text class="terminal" x="59" y="109">*</text>
   <rect x="51" y="47" width="28" height="32" rx="10"/>
   <rect x="49"
         y="45"
         width="28"
         height="32"
         class="terminal"
         rx="10"/>
   <text class="terminal" x="59" y="65">/</text>
   <rect x="51" y="3" width="34" height="32" rx="10"/>
   <rect x="49"
         y="1"
         width="34"
         height="32"
         class="terminal"
         rx="10"/>
   <text class="terminal" x="59" y="21">%</text>
   <path class="line"
         d="m17 149 h2 m20 0 h10 m90 0 h10 m-130 0 l20 0 m-1 0 q-9 0 -9 -10 l0 -24 q0 -10 10 -10 m110 44 l20 0 m-20 0 q10 0 10 -10 l0 -24 q0 -10 -10 -10 m-110 0 h10 m28 0 h10 m0 0 h62 m-120 10 l0 -44 q0 -10 10 -10 m120 54 l0 -44 q0 -10 -10 -10 m-110 0 h10 m28 0 h10 m0 0 h62 m-120 10 l0 -44 q0 -10 10 -10 m120 54 l0 -44 q0 -10 -10 -10 m-110 0 h10 m34 0 h10 m0 0 h56 m23 132 h-3"/>
   <polygon points="179 149 187 145 187 153"/>
   <polygon points="179 149 171 145 171 153"/>
</svg>
