<?xml version="1.0" encoding="UTF-8"?>
<svg xmlns="http://www.w3.org/2000/svg" width="243" height="37">
   <defs>
      <style type="text/css">
    @namespace "http://www.w3.org/2000/svg";
    .line                 {fill: none; stroke: #001133; stroke-width: 1;}
    .bold-line            {stroke: #000714; shape-rendering: crispEdges; stroke-width: 2;}
    .thin-line            {stroke: #000A1F; shape-rendering: crispEdges}
    .filled               {fill: #001133; stroke: none;}
    text.terminal         {font-family: Verdana, Sans-serif;
                            font-size: 12px;
                            fill: #000714;
                            font-weight: bold;
                          }
    text.nonterminal      {font-family: Verdana, Sans-serif;
                            font-size: 12px;
                            fill: #00091A;
                            font-weight: normal;
                          }
    text.regexp           {font-family: Verdana, Sans-serif;
                            font-size: 12px;
                            fill: #000A1F;
                            font-weight: normal;
                          }
    rect, circle, polygon {fill: #001133; stroke: #001133;}
    rect.terminal         {fill: #4D88FF; stroke: #001133; stroke-width: 1;}
    rect.nonterminal      {fill: #9EBFFF; stroke: #001133; stroke-width: 1;}
    rect.text             {fill: none; stroke: none;}
    polygon.regexp        {fill: #C7DAFF; stroke: #001133; stroke-width: 1;}
  </style>
   </defs>
   <polygon points="9 17 1 13 1 21"/>
   <polygon points="17 17 9 13 9 21"/>
   <rect x="31" y="3" width="52" height="32" rx="10"/>
   <rect x="29"
         y="1"
         width="52"
         height="32"
         class="terminal"
         rx="10"/>
   <text class="terminal" x="39" y="21">print</text>
   <a xmlns:xlink="http://www.w3.org/1999/xlink"
      xlink:href="#ExpressionList"
      xlink:title="ExpressionList">
      <rect x="103" y="3" width="112" height="32"/>
      <rect x="101" y="1" width="112" height="32" class="nonterminal"/>
      <text class="nonterminal" x="111" y="21">ExpressionList</text>
   </a>
   <path class="line"
         d="m17 17 h2 m0 0 h10 m52 0 h10 m0 0 h10 m112 0 h10 m3 0 h-3"/>
   <polygon points="233 17 241 13 241 21"/>
   <polygon points="233 17 225 13 225 21"/>
</svg>
