<?xml version="1.0" encoding="UTF-8"?>
<svg xmlns="http://www.w3.org/2000/svg" width="135" height="169">
   <defs>
      <style type="text/css">
    @namespace "http://www.w3.org/2000/svg";
    .line                 {fill: none; stroke: #000535; stroke-width: 1;}
    .bold-line            {stroke: #E0E3FF; shape-rendering: crispEdges; stroke-width: 2;}
    .thin-line            {stroke: #00031F; shape-rendering: crispEdges}
    .filled               {fill: #000535; stroke: none;}
    text.terminal         {font-family: Verdana, Sans-serif;
                            font-size: 12px;
                            fill: #E0E3FF;
                            font-weight: bold;
                          }
    text.nonterminal      {font-family: Verdana, Sans-serif;
                            font-size: 12px;
                            fill: #00031A;
                            font-weight: normal;
                          }
    text.regexp           {font-family: Verdana, Sans-serif;
                            font-size: 12px;
                            fill: #00031F;
                            font-weight: normal;
                          }
    rect, circle, polygon {fill: #000535; stroke: #000535;}
    rect.terminal         {fill: #5768FF; stroke: #000535; stroke-width: 1;}
    rect.nonterminal      {fill: #A4ADFF; stroke: #000535; stroke-width: 1;}
    rect.text             {fill: none; stroke: none;}
    polygon.regexp        {fill: #CACFFF; stroke: #000535; stroke-width: 1;}
  </style>
   </defs>
   <polygon points="9 17 1 13 1 21"/>
   <polygon points="17 17 9 13 9 21"/>
   <rect x="51" y="3" width="34" height="32" rx="10"/>
   <rect x="49"
         y="1"
         width="34"
         height="32"
         class="terminal"
         rx="10"/>
   <text class="terminal" x="59" y="21">\t</text>
   <rect x="51" y="47" width="36" height="32" rx="10"/>
   <rect x="49"
         y="45"
         width="36"
         height="32"
         class="terminal"
         rx="10"/>
   <text class="terminal" x="59" y="65">\n</text>
   <rect x="51" y="91" width="34" height="32" rx="10"/>
   <rect x="49"
         y="89"
         width="34"
         height="32"
         class="terminal"
         rx="10"/>
   <text class="terminal" x="59" y="109">\r</text>
   <rect x="51" y="135" width="24" height="32" rx="10"/>
   <rect x="49"
         y="133"
         width="24"
         height="32"
         class="terminal"
         rx="10"/>
   <text class="terminal" x="59" y="153"/>
   <path class="line"
         d="m17 17 h2 m20 0 h10 m34 0 h10 m0 0 h2 m-76 0 h20 m56 0 h20 m-96 0 q10 0 10 10 m76 0 q0 -10 10 -10 m-86 10 v24 m76 0 v-24 m-76 24 q0 10 10 10 m56 0 q10 0 10 -10 m-66 10 h10 m36 0 h10 m-66 -10 v20 m76 0 v-20 m-76 20 v24 m76 0 v-24 m-76 24 q0 10 10 10 m56 0 q10 0 10 -10 m-66 10 h10 m34 0 h10 m0 0 h2 m-66 -10 v20 m76 0 v-20 m-76 20 v24 m76 0 v-24 m-76 24 q0 10 10 10 m56 0 q10 0 10 -10 m-66 10 h10 m24 0 h10 m0 0 h12 m23 -132 h-3"/>
   <polygon points="125 17 133 13 133 21"/>
   <polygon points="125 17 117 13 117 21"/>
</svg>
