<?xml version="1.0" encoding="UTF-8"?>
<svg xmlns="http://www.w3.org/2000/svg" width="279" height="125">
   <defs>
      <style type="text/css">
    @namespace "http://www.w3.org/2000/svg";
    .line                 {fill: none; stroke: #003322; stroke-width: 1;}
    .bold-line            {stroke: #00140E; shape-rendering: crispEdges; stroke-width: 2;}
    .thin-line            {stroke: #001F14; shape-rendering: crispEdges}
    .filled               {fill: #003322; stroke: none;}
    text.terminal         {font-family: Verdana, Sans-serif;
                            font-size: 12px;
                            fill: #00140E;
                            font-weight: bold;
                          }
    text.nonterminal      {font-family: Verdana, Sans-serif;
                            font-size: 12px;
                            fill: #001A11;
                            font-weight: normal;
                          }
    text.regexp           {font-family: Verdana, Sans-serif;
                            font-size: 12px;
                            fill: #001F14;
                            font-weight: normal;
                          }
    rect, circle, polygon {fill: #003322; stroke: #003322;}
    rect.terminal         {fill: #4DFFC3; stroke: #003322; stroke-width: 1;}
    rect.nonterminal      {fill: #9EFFDF; stroke: #003322; stroke-width: 1;}
    rect.text             {fill: none; stroke: none;}
    polygon.regexp        {fill: #C7FFEC; stroke: #003322; stroke-width: 1;}
  </style>
   </defs>
   <polygon points="9 17 1 13 1 21"/>
   <polygon points="17 17 9 13 9 21"/>
   <a xmlns:xlink="http://www.w3.org/1999/xlink"
      xlink:href="#VarDeclarationStatement"
      xlink:title="VarDeclarationStatement">
      <rect x="51" y="3" width="180" height="32"/>
      <rect x="49" y="1" width="180" height="32" class="nonterminal"/>
      <text class="nonterminal" x="59" y="21">VarDeclarationStatement</text>
   </a>
   <a xmlns:xlink="http://www.w3.org/1999/xlink"
      xlink:href="#AssignmentStatement"
      xlink:title="AssignmentStatement">
      <rect x="51" y="47" width="160" height="32"/>
      <rect x="49" y="45" width="160" height="32" class="nonterminal"/>
      <text class="nonterminal" x="59" y="65">AssignmentStatement</text>
   </a>
   <a xmlns:xlink="http://www.w3.org/1999/xlink"
      xlink:href="#PrintStatement"
      xlink:title="PrintStatement">
      <rect x="51" y="91" width="116" height="32"/>
      <rect x="49" y="89" width="116" height="32" class="nonterminal"/>
      <text class="nonterminal" x="59" y="109">PrintStatement</text>
   </a>
   <path class="line"
         d="m17 17 h2 m20 0 h10 m180 0 h10 m-220 0 h20 m200 0 h20 m-240 0 q10 0 10 10 m220 0 q0 -10 10 -10 m-230 10 v24 m220 0 v-24 m-220 24 q0 10 10 10 m200 0 q10 0 10 -10 m-210 10 h10 m160 0 h10 m0 0 h20 m-210 -10 v20 m220 0 v-20 m-220 20 v24 m220 0 v-24 m-220 24 q0 10 10 10 m200 0 q10 0 10 -10 m-210 10 h10 m116 0 h10 m0 0 h64 m23 -88 h-3"/>
   <polygon points="269 17 277 13 277 21"/>
   <polygon points="269 17 261 13 261 21"/>
</svg>
