<?xml version="1.0" encoding="UTF-8"?>
<svg xmlns="http://www.w3.org/2000/svg" width="295" height="345">
   <defs>
      <style type="text/css">
    @namespace "http://www.w3.org/2000/svg";
    .line                 {fill: none; stroke: #000535; stroke-width: 1;}
    .bold-line            {stroke: #E0E3FF; shape-rendering: crispEdges; stroke-width: 2;}
    .thin-line            {stroke: #00031F; shape-rendering: crispEdges}
    .filled               {fill: #000535; stroke: none;}
    text.terminal         {font-family: Verdana, Sans-serif;
                            font-size: 12px;
                            fill: #E0E3FF;
                            font-weight: bold;
                          }
    text.nonterminal      {font-family: Verdana, Sans-serif;
                            font-size: 12px;
                            fill: #00031A;
                            font-weight: normal;
                          }
    text.regexp           {font-family: Verdana, Sans-serif;
                            font-size: 12px;
                            fill: #00031F;
                            font-weight: normal;
                          }
    rect, circle, polygon {fill: #000535; stroke: #000535;}
    rect.terminal         {fill: #5768FF; stroke: #000535; stroke-width: 1;}
    rect.nonterminal      {fill: #A4ADFF; stroke: #000535; stroke-width: 1;}
    rect.text             {fill: none; stroke: none;}
    polygon.regexp        {fill: #CACFFF; stroke: #000535; stroke-width: 1;}
  </style>
   </defs>
   <polygon points="9 17 1 13 1 21"/>
   <polygon points="17 17 9 13 9 21"/>
   <a xmlns:xlink="http://www.w3.org/1999/xlink"
      xlink:href="#BlockStatement"
      xlink:title="BlockStatement">
      <rect x="51" y="3" width="120" height="32"/>
      <rect x="49" y="1" width="120" height="32" class="nonterminal"/>
      <text class="nonterminal" x="59" y="21">BlockStatement</text>
   </a>
   <a xmlns:xlink="http://www.w3.org/1999/xlink"
      xlink:href="#IfStatement"
      xlink:title="IfStatement">
      <rect x="51" y="47" width="96" height="32"/>
      <rect x="49" y="45" width="96" height="32" class="nonterminal"/>
      <text class="nonterminal" x="59" y="65">IfStatement</text>
   </a>
   <a xmlns:xlink="http://www.w3.org/1999/xlink"
      xlink:href="#AssignmentStatement"
      xlink:title="AssignmentStatement">
      <rect x="51" y="91" width="160" height="32"/>
      <rect x="49" y="89" width="160" height="32" class="nonterminal"/>
      <text class="nonterminal" x="59" y="109">AssignmentStatement</text>
   </a>
   <a xmlns:xlink="http://www.w3.org/1999/xlink"
      xlink:href="#ConstDeclarationStatement"
      xlink:title="ConstDeclarationStatement">
      <rect x="51" y="135" width="196" height="32"/>
      <rect x="49" y="133" width="196" height="32" class="nonterminal"/>
      <text class="nonterminal" x="59" y="153">ConstDeclarationStatement</text>
   </a>
   <a xmlns:xlink="http://www.w3.org/1999/xlink"
      xlink:href="#VarDeclarationStatement"
      xlink:title="VarDeclarationStatement">
      <rect x="51" y="179" width="180" height="32"/>
      <rect x="49" y="177" width="180" height="32" class="nonterminal"/>
      <text class="nonterminal" x="59" y="197">VarDeclarationStatement</text>
   </a>
   <a xmlns:xlink="http://www.w3.org/1999/xlink"
      xlink:href="#DoWhileLoopStatement"
      xlink:title="DoWhileLoopStatement">
      <rect x="51" y="223" width="170" height="32"/>
      <rect x="49" y="221" width="170" height="32" class="nonterminal"/>
      <text class="nonterminal" x="59" y="241">DoWhileLoopStatement</text>
   </a>
   <a xmlns:xlink="http://www.w3.org/1999/xlink"
      xlink:href="#WhileLoopStatement"
      xlink:title="WhileLoopStatement">
      <rect x="51" y="267" width="152" height="32"/>
      <rect x="49" y="265" width="152" height="32" class="nonterminal"/>
      <text class="nonterminal" x="59" y="285">WhileLoopStatement</text>
   </a>
   <a xmlns:xlink="http://www.w3.org/1999/xlink"
      xlink:href="#PrintStatement"
      xlink:title="PrintStatement">
      <rect x="51" y="311" width="116" height="32"/>
      <rect x="49" y="309" width="116" height="32" class="nonterminal"/>
      <text class="nonterminal" x="59" y="329">PrintStatement</text>
   </a>
   <path class="line"
         d="m17 17 h2 m20 0 h10 m120 0 h10 m0 0 h76 m-236 0 h20 m216 0 h20 m-256 0 q10 0 10 10 m236 0 q0 -10 10 -10 m-246 10 v24 m236 0 v-24 m-236 24 q0 10 10 10 m216 0 q10 0 10 -10 m-226 10 h10 m96 0 h10 m0 0 h100 m-226 -10 v20 m236 0 v-20 m-236 20 v24 m236 0 v-24 m-236 24 q0 10 10 10 m216 0 q10 0 10 -10 m-226 10 h10 m160 0 h10 m0 0 h36 m-226 -10 v20 m236 0 v-20 m-236 20 v24 m236 0 v-24 m-236 24 q0 10 10 10 m216 0 q10 0 10 -10 m-226 10 h10 m196 0 h10 m-226 -10 v20 m236 0 v-20 m-236 20 v24 m236 0 v-24 m-236 24 q0 10 10 10 m216 0 q10 0 10 -10 m-226 10 h10 m180 0 h10 m0 0 h16 m-226 -10 v20 m236 0 v-20 m-236 20 v24 m236 0 v-24 m-236 24 q0 10 10 10 m216 0 q10 0 10 -10 m-226 10 h10 m170 0 h10 m0 0 h26 m-226 -10 v20 m236 0 v-20 m-236 20 v24 m236 0 v-24 m-236 24 q0 10 10 10 m216 0 q10 0 10 -10 m-226 10 h10 m152 0 h10 m0 0 h44 m-226 -10 v20 m236 0 v-20 m-236 20 v24 m236 0 v-24 m-236 24 q0 10 10 10 m216 0 q10 0 10 -10 m-226 10 h10 m116 0 h10 m0 0 h80 m23 -308 h-3"/>
   <polygon points="285 17 293 13 293 21"/>
   <polygon points="285 17 277 13 277 21"/>
</svg>
