<?xml version="1.0" encoding="UTF-8"?>
<svg xmlns="http://www.w3.org/2000/svg" width="405" height="81">
   <defs>
      <style type="text/css">
    @namespace "http://www.w3.org/2000/svg";
    .line                 {fill: none; stroke: #330000; stroke-width: 1;}
    .bold-line            {stroke: #140000; shape-rendering: crispEdges; stroke-width: 2;}
    .thin-line            {stroke: #1F0000; shape-rendering: crispEdges}
    .filled               {fill: #330000; stroke: none;}
    text.terminal         {font-family: Verdana, Sans-serif;
                            font-size: 12px;
                            fill: #140000;
                            font-weight: bold;
                          }
    text.nonterminal      {font-family: Verdana, Sans-serif;
                            font-size: 12px;
                            fill: #1A0000;
                            font-weight: normal;
                          }
    text.regexp           {font-family: Verdana, Sans-serif;
                            font-size: 12px;
                            fill: #1F0000;
                            font-weight: normal;
                          }
    rect, circle, polygon {fill: #330000; stroke: #330000;}
    rect.terminal         {fill: #FF4D4D; stroke: #330000; stroke-width: 1;}
    rect.nonterminal      {fill: #FF9E9E; stroke: #330000; stroke-width: 1;}
    rect.text             {fill: none; stroke: none;}
    polygon.regexp        {fill: #FFC7C7; stroke: #330000; stroke-width: 1;}
  </style>
   </defs>
   <polygon points="9 17 1 13 1 21"/>
   <polygon points="17 17 9 13 9 21"/>
   <a xmlns:xlink="http://www.w3.org/1999/xlink"
      xlink:href="#String"
      xlink:title="String">
      <rect x="51" y="3" width="58" height="32"/>
      <rect x="49" y="1" width="58" height="32" class="nonterminal"/>
      <text class="nonterminal" x="59" y="21">String</text>
   </a>
   <a xmlns:xlink="http://www.w3.org/1999/xlink"
      xlink:href="#Identifier"
      xlink:title="Identifier">
      <rect x="51" y="47" width="78" height="32"/>
      <rect x="49" y="45" width="78" height="32" class="nonterminal"/>
      <text class="nonterminal" x="59" y="65">Identifier</text>
   </a>
   <rect x="189" y="3" width="30" height="32" rx="10"/>
   <rect x="187"
         y="1"
         width="30"
         height="32"
         class="terminal"
         rx="10"/>
   <text class="terminal" x="197" y="21">+</text>
   <rect x="189" y="47" width="28" height="32" rx="10"/>
   <rect x="187"
         y="45"
         width="28"
         height="32"
         class="terminal"
         rx="10"/>
   <text class="terminal" x="197" y="65">*</text>
   <a xmlns:xlink="http://www.w3.org/1999/xlink"
      xlink:href="#String"
      xlink:title="String">
      <rect x="279" y="3" width="58" height="32"/>
      <rect x="277" y="1" width="58" height="32" class="nonterminal"/>
      <text class="nonterminal" x="287" y="21">String</text>
   </a>
   <a xmlns:xlink="http://www.w3.org/1999/xlink"
      xlink:href="#Identifier"
      xlink:title="Identifier">
      <rect x="279" y="47" width="78" height="32"/>
      <rect x="277" y="45" width="78" height="32" class="nonterminal"/>
      <text class="nonterminal" x="287" y="65">Identifier</text>
   </a>
   <path class="line"
         d="m17 17 h2 m20 0 h10 m58 0 h10 m0 0 h20 m-118 0 h20 m98 0 h20 m-138 0 q10 0 10 10 m118 0 q0 -10 10 -10 m-128 10 v24 m118 0 v-24 m-118 24 q0 10 10 10 m98 0 q10 0 10 -10 m-108 10 h10 m78 0 h10 m40 -44 h10 m30 0 h10 m-70 0 h20 m50 0 h20 m-90 0 q10 0 10 10 m70 0 q0 -10 10 -10 m-80 10 v24 m70 0 v-24 m-70 24 q0 10 10 10 m50 0 q10 0 10 -10 m-60 10 h10 m28 0 h10 m0 0 h2 m40 -44 h10 m58 0 h10 m0 0 h20 m-118 0 h20 m98 0 h20 m-138 0 q10 0 10 10 m118 0 q0 -10 10 -10 m-128 10 v24 m118 0 v-24 m-118 24 q0 10 10 10 m98 0 q10 0 10 -10 m-108 10 h10 m78 0 h10 m23 -44 h-3"/>
   <polygon points="395 17 403 13 403 21"/>
   <polygon points="395 17 387 13 387 21"/>
</svg>
