<?xml version="1.0" encoding="UTF-8"?>
<svg xmlns="http://www.w3.org/2000/svg" width="595" height="81">
   <defs>
      <style type="text/css">
    @namespace "http://www.w3.org/2000/svg";
    .line                 {fill: none; stroke: #000535; stroke-width: 1;}
    .bold-line            {stroke: #E0E3FF; shape-rendering: crispEdges; stroke-width: 2;}
    .thin-line            {stroke: #00031F; shape-rendering: crispEdges}
    .filled               {fill: #000535; stroke: none;}
    text.terminal         {font-family: Verdana, Sans-serif;
                            font-size: 12px;
                            fill: #E0E3FF;
                            font-weight: bold;
                          }
    text.nonterminal      {font-family: Verdana, Sans-serif;
                            font-size: 12px;
                            fill: #00031A;
                            font-weight: normal;
                          }
    text.regexp           {font-family: Verdana, Sans-serif;
                            font-size: 12px;
                            fill: #00031F;
                            font-weight: normal;
                          }
    rect, circle, polygon {fill: #000535; stroke: #000535;}
    rect.terminal         {fill: #5768FF; stroke: #000535; stroke-width: 1;}
    rect.nonterminal      {fill: #A4ADFF; stroke: #000535; stroke-width: 1;}
    rect.text             {fill: none; stroke: none;}
    polygon.regexp        {fill: #CACFFF; stroke: #000535; stroke-width: 1;}
  </style>
   </defs>
   <polygon points="9 17 1 13 1 21"/>
   <polygon points="17 17 9 13 9 21"/>
   <a xmlns:xlink="http://www.w3.org/1999/xlink"
      xlink:href="#Expression"
      xlink:title="Expression">
      <rect x="31" y="3" width="90" height="32"/>
      <rect x="29" y="1" width="90" height="32" class="nonterminal"/>
      <text class="nonterminal" x="39" y="21">Expression</text>
   </a>
   <rect x="141" y="3" width="26" height="32" rx="10"/>
   <rect x="139"
         y="1"
         width="26"
         height="32"
         class="terminal"
         rx="10"/>
   <text class="terminal" x="149" y="21">?</text>
   <a xmlns:xlink="http://www.w3.org/1999/xlink"
      xlink:href="#Expression"
      xlink:title="Expression">
      <rect x="207" y="3" width="90" height="32"/>
      <rect x="205" y="1" width="90" height="32" class="nonterminal"/>
      <text class="nonterminal" x="215" y="21">Expression</text>
   </a>
   <rect x="317" y="3" width="24" height="32" rx="10"/>
   <rect x="315"
         y="1"
         width="24"
         height="32"
         class="terminal"
         rx="10"/>
   <text class="terminal" x="325" y="21">:</text>
   <a xmlns:xlink="http://www.w3.org/1999/xlink"
      xlink:href="#Expression"
      xlink:title="Expression">
      <rect x="361" y="3" width="90" height="32"/>
      <rect x="359" y="1" width="90" height="32" class="nonterminal"/>
      <text class="nonterminal" x="369" y="21">Expression</text>
   </a>
   <a xmlns:xlink="http://www.w3.org/1999/xlink"
      xlink:href="#TernaryExpression"
      xlink:title="TernaryExpression">
      <rect x="207" y="47" width="138" height="32"/>
      <rect x="205" y="45" width="138" height="32" class="nonterminal"/>
      <text class="nonterminal" x="215" y="65">TernaryExpression</text>
   </a>
   <rect x="365" y="47" width="24" height="32" rx="10"/>
   <rect x="363"
         y="45"
         width="24"
         height="32"
         class="terminal"
         rx="10"/>
   <text class="terminal" x="373" y="65">:</text>
   <a xmlns:xlink="http://www.w3.org/1999/xlink"
      xlink:href="#TernaryExpression"
      xlink:title="TernaryExpression">
      <rect x="409" y="47" width="138" height="32"/>
      <rect x="407" y="45" width="138" height="32" class="nonterminal"/>
      <text class="nonterminal" x="417" y="65">TernaryExpression</text>
   </a>
   <path class="line"
         d="m17 17 h2 m0 0 h10 m90 0 h10 m0 0 h10 m26 0 h10 m20 0 h10 m90 0 h10 m0 0 h10 m24 0 h10 m0 0 h10 m90 0 h10 m0 0 h96 m-380 0 h20 m360 0 h20 m-400 0 q10 0 10 10 m380 0 q0 -10 10 -10 m-390 10 v24 m380 0 v-24 m-380 24 q0 10 10 10 m360 0 q10 0 10 -10 m-370 10 h10 m138 0 h10 m0 0 h10 m24 0 h10 m0 0 h10 m138 0 h10 m23 -44 h-3"/>
   <polygon points="585 17 593 13 593 21"/>
   <polygon points="585 17 577 13 577 21"/>
</svg>
