<?xml version="1.0" encoding="UTF-8"?>
<svg xmlns="http://www.w3.org/2000/svg" width="279" height="81">
   <defs>
      <style type="text/css">
    @namespace "http://www.w3.org/2000/svg";
    .line                 {fill: none; stroke: #000535; stroke-width: 1;}
    .bold-line            {stroke: #E0E3FF; shape-rendering: crispEdges; stroke-width: 2;}
    .thin-line            {stroke: #00031F; shape-rendering: crispEdges}
    .filled               {fill: #000535; stroke: none;}
    text.terminal         {font-family: Verdana, Sans-serif;
                            font-size: 12px;
                            fill: #E0E3FF;
                            font-weight: bold;
                          }
    text.nonterminal      {font-family: Verdana, Sans-serif;
                            font-size: 12px;
                            fill: #00031A;
                            font-weight: normal;
                          }
    text.regexp           {font-family: Verdana, Sans-serif;
                            font-size: 12px;
                            fill: #00031F;
                            font-weight: normal;
                          }
    rect, circle, polygon {fill: #000535; stroke: #000535;}
    rect.terminal         {fill: #5768FF; stroke: #000535; stroke-width: 1;}
    rect.nonterminal      {fill: #A4ADFF; stroke: #000535; stroke-width: 1;}
    rect.text             {fill: none; stroke: none;}
    polygon.regexp        {fill: #CACFFF; stroke: #000535; stroke-width: 1;}
  </style>
   </defs>
   <polygon points="9 61 1 57 1 65"/>
   <polygon points="17 61 9 57 9 65"/>
   <a xmlns:xlink="http://www.w3.org/1999/xlink"
      xlink:href="#Expression"
      xlink:title="Expression">
      <rect x="51" y="47" width="90" height="32"/>
      <rect x="49" y="45" width="90" height="32" class="nonterminal"/>
      <text class="nonterminal" x="59" y="65">Expression</text>
   </a>
   <rect x="51" y="3" width="24" height="32" rx="10"/>
   <rect x="49"
         y="1"
         width="24"
         height="32"
         class="terminal"
         rx="10"/>
   <text class="terminal" x="59" y="21">:</text>
   <a xmlns:xlink="http://www.w3.org/1999/xlink"
      xlink:href="#Expression"
      xlink:title="Expression">
      <rect x="95" y="3" width="90" height="32"/>
      <rect x="93" y="1" width="90" height="32" class="nonterminal"/>
      <text class="nonterminal" x="103" y="21">Expression</text>
   </a>
   <rect x="205" y="3" width="26" height="32" rx="10"/>
   <rect x="203"
         y="1"
         width="26"
         height="32"
         class="terminal"
         rx="10"/>
   <text class="terminal" x="213" y="21">?</text>
   <path class="line"
         d="m17 61 h2 m20 0 h10 m90 0 h10 m0 0 h90 m-220 0 l20 0 m-1 0 q-9 0 -9 -10 l0 -24 q0 -10 10 -10 m200 44 l20 0 m-20 0 q10 0 10 -10 l0 -24 q0 -10 -10 -10 m-200 0 h10 m24 0 h10 m0 0 h10 m90 0 h10 m0 0 h10 m26 0 h10 m23 44 h-3"/>
   <polygon points="269 61 277 57 277 65"/>
   <polygon points="269 61 261 57 261 65"/>
</svg>
