<?xml version="1.0" encoding="UTF-8"?>
<svg xmlns="http://www.w3.org/2000/svg" width="279" height="169">
   <defs>
      <style type="text/css">
    @namespace "http://www.w3.org/2000/svg";
    .line                 {fill: none; stroke: #000535; stroke-width: 1;}
    .bold-line            {stroke: #E0E3FF; shape-rendering: crispEdges; stroke-width: 2;}
    .thin-line            {stroke: #00031F; shape-rendering: crispEdges}
    .filled               {fill: #000535; stroke: none;}
    text.terminal         {font-family: Verdana, Sans-serif;
                            font-size: 12px;
                            fill: #E0E3FF;
                            font-weight: bold;
                          }
    text.nonterminal      {font-family: Verdana, Sans-serif;
                            font-size: 12px;
                            fill: #00031A;
                            font-weight: normal;
                          }
    text.regexp           {font-family: Verdana, Sans-serif;
                            font-size: 12px;
                            fill: #00031F;
                            font-weight: normal;
                          }
    rect, circle, polygon {fill: #000535; stroke: #000535;}
    rect.terminal         {fill: #5768FF; stroke: #000535; stroke-width: 1;}
    rect.nonterminal      {fill: #A4ADFF; stroke: #000535; stroke-width: 1;}
    rect.text             {fill: none; stroke: none;}
    polygon.regexp        {fill: #CACFFF; stroke: #000535; stroke-width: 1;}
  </style>
   </defs>
   <polygon points="9 17 1 13 1 21"/>
   <polygon points="17 17 9 13 9 21"/>
   <rect x="71" y="3" width="30" height="32" rx="10"/>
   <rect x="69"
         y="1"
         width="30"
         height="32"
         class="terminal"
         rx="10"/>
   <text class="terminal" x="79" y="21">+</text>
   <rect x="71" y="47" width="26" height="32" rx="10"/>
   <rect x="69"
         y="45"
         width="26"
         height="32"
         class="terminal"
         rx="10"/>
   <text class="terminal" x="79" y="65">-</text>
   <rect x="71" y="91" width="24" height="32" rx="10"/>
   <rect x="69"
         y="89"
         width="24"
         height="32"
         class="terminal"
         rx="10"/>
   <text class="terminal" x="79" y="109">!</text>
   <a xmlns:xlink="http://www.w3.org/1999/xlink"
      xlink:href="#Expression"
      xlink:title="Expression">
      <rect x="141" y="3" width="90" height="32"/>
      <rect x="139" y="1" width="90" height="32" class="nonterminal"/>
      <text class="nonterminal" x="149" y="21">Expression</text>
   </a>
   <a xmlns:xlink="http://www.w3.org/1999/xlink"
      xlink:href="#PrimaryExpression"
      xlink:title="PrimaryExpression">
      <rect x="51" y="135" width="138" height="32"/>
      <rect x="49" y="133" width="138" height="32" class="nonterminal"/>
      <text class="nonterminal" x="59" y="153">PrimaryExpression</text>
   </a>
   <path class="line"
         d="m17 17 h2 m40 0 h10 m30 0 h10 m-70 0 h20 m50 0 h20 m-90 0 q10 0 10 10 m70 0 q0 -10 10 -10 m-80 10 v24 m70 0 v-24 m-70 24 q0 10 10 10 m50 0 q10 0 10 -10 m-60 10 h10 m26 0 h10 m0 0 h4 m-60 -10 v20 m70 0 v-20 m-70 20 v24 m70 0 v-24 m-70 24 q0 10 10 10 m50 0 q10 0 10 -10 m-60 10 h10 m24 0 h10 m0 0 h6 m20 -88 h10 m90 0 h10 m-220 0 h20 m200 0 h20 m-240 0 q10 0 10 10 m220 0 q0 -10 10 -10 m-230 10 v112 m220 0 v-112 m-220 112 q0 10 10 10 m200 0 q10 0 10 -10 m-210 10 h10 m138 0 h10 m0 0 h42 m23 -132 h-3"/>
   <polygon points="269 17 277 13 277 21"/>
   <polygon points="269 17 261 13 261 21"/>
</svg>
