<?xml version="1.0" encoding="UTF-8"?>
<svg xmlns="http://www.w3.org/2000/svg" width="273" height="81">
   <defs>
      <style type="text/css">
    @namespace "http://www.w3.org/2000/svg";
    .line                 {fill: none; stroke: #003322; stroke-width: 1;}
    .bold-line            {stroke: #00140E; shape-rendering: crispEdges; stroke-width: 2;}
    .thin-line            {stroke: #001F14; shape-rendering: crispEdges}
    .filled               {fill: #003322; stroke: none;}
    text.terminal         {font-family: Verdana, Sans-serif;
                            font-size: 12px;
                            fill: #00140E;
                            font-weight: bold;
                          }
    text.nonterminal      {font-family: Verdana, Sans-serif;
                            font-size: 12px;
                            fill: #001A11;
                            font-weight: normal;
                          }
    text.regexp           {font-family: Verdana, Sans-serif;
                            font-size: 12px;
                            fill: #001F14;
                            font-weight: normal;
                          }
    rect, circle, polygon {fill: #003322; stroke: #003322;}
    rect.terminal         {fill: #4DFFC3; stroke: #003322; stroke-width: 1;}
    rect.nonterminal      {fill: #9EFFDF; stroke: #003322; stroke-width: 1;}
    rect.text             {fill: none; stroke: none;}
    polygon.regexp        {fill: #C7FFEC; stroke: #003322; stroke-width: 1;}
  </style>
   </defs>
   <polygon points="9 61 1 57 1 65"/>
   <polygon points="17 61 9 57 9 65"/>
   <rect x="31" y="47" width="42" height="32" rx="10"/>
   <rect x="29"
         y="45"
         width="42"
         height="32"
         class="terminal"
         rx="10"/>
   <text class="terminal" x="39" y="65">var</text>
   <a xmlns:xlink="http://www.w3.org/1999/xlink"
      xlink:href="#VarDeclaration"
      xlink:title="VarDeclaration">
      <rect x="113" y="47" width="112" height="32"/>
      <rect x="111" y="45" width="112" height="32" class="nonterminal"/>
      <text class="nonterminal" x="121" y="65">VarDeclaration</text>
   </a>
   <rect x="113" y="3" width="24" height="32" rx="10"/>
   <rect x="111"
         y="1"
         width="24"
         height="32"
         class="terminal"
         rx="10"/>
   <text class="terminal" x="121" y="21">,</text>
   <path class="line"
         d="m17 61 h2 m0 0 h10 m42 0 h10 m20 0 h10 m112 0 h10 m-152 0 l20 0 m-1 0 q-9 0 -9 -10 l0 -24 q0 -10 10 -10 m132 44 l20 0 m-20 0 q10 0 10 -10 l0 -24 q0 -10 -10 -10 m-132 0 h10 m24 0 h10 m0 0 h88 m23 44 h-3"/>
   <polygon points="263 61 271 57 271 65"/>
   <polygon points="263 61 255 57 255 65"/>
</svg>
